<svg xmlns="http://www.w3.org/2000/svg" xmlns:xlink="http://www.w3.org/1999/xlink" version="1.1" id="Capa_1" x="0px" y="0px" viewBox="0 0 640 321.81" style="enable-background:new 0 0 640 321.81;" xml:space="preserve" width="120"  height="60.339375" >
<style type="text/css">
	.st0{fill-rule:evenodd;clip-rule:evenodd;fill:#CED2DF;}
	.st1{fill-rule:evenodd;clip-rule:evenodd;fill:#8994B2;}
	.st2{fill-rule:evenodd;clip-rule:evenodd;fill:#55668F;}
	.st3{fill-rule:evenodd;clip-rule:evenodd;fill:#1F3C6E;}
	.st4{fill:#1F3C6E;}
</style>
<g>
	<path class="st0" d="M337.33,195.63c-4.34,17.04-8.68,34.08-13.03,51.12c8.33,0.06,16.67,0.11,25,0.17   c4.36-17.1,8.73-34.19,13.09-51.29C354.04,195.63,345.68,195.63,337.33,195.63z"/>
	<path class="st1" d="M374.48,181.83c-5.47,21.64-10.94,43.28-16.41,64.92c8.31,0.06,16.63,0.11,24.94,0.17   c5.53-21.7,11.07-43.39,16.6-65.09C391.24,181.83,382.86,181.83,374.48,181.83z"/>
	<path class="st2" d="M412.66,164.95c-6.99,27.32-13.99,54.64-20.98,81.96c8.24,0,16.48,0,24.72,0   c6.95-27.32,13.9-54.64,20.84-81.96C429.04,164.95,420.85,164.95,412.66,164.95z"/>
	<path class="st3" d="M81.08,0c39.86,0.13,103.9,0.4,119.58,0.4c30.54,0,51.23,25.88,52.87,44.33c0.61,6.82-1.36,15.39-1.72,16.71   c-3.19,11.54-10.17,19.46-16.92,30.81c4.1,2.22,8.7,5.05,13.49,8.68c5.61,4.24,10.15,8.55,13.72,12.4   c9.71-37.64,19.42-75.28,29.13-112.92c25.96,0,36.11,0,46.69,0c16.32,0,24.29,0,39.03-0.13c4.54-0.04,9.43,0.03,16.62,0.13   c14.88,0.21,14.36,0.04,20.65,0c11.59-0.07,19.1,0.65,27.09,4.9c1.6,0.85,6.23,3.59,11.05,8.55c5.08,5.24,8.43,11.58,10.33,18.34   c3.68-5.52,12.61-17.28,28.76-25C504.05,1.16,515.18,0.34,523.5,0h86.73l-12.41,47.57c0,0-39.03-0.1-58.3,0   c-13.34,0-23.41,12.81-16.66,20.31c10.16,11.34,42.92,23.75,71.71,46.63c11.97,9.51,16.92,25.73,16.55,39.65   c-0.4,15.08-9.91,26.31-20.42,35.83c-10.27,9.31-34.33,23.67-57.3,23.54l-100.22,0.18l13.01-50.6c0,0,50.83,0.02,76.09,0   c8.72,0.08,19.37-4.19,22.79-9.3c3.41-5.19-0.45-12.86-6.22-16.13c-28.05-15.89-55.94-32.66-79.06-55.91   c-1.67,4.43-3.87,9.02-6.75,13.58c-16.99,26.9-43.13,37.38-58.98,37.38c-25.09,0-74.75,0-74.75,0s7.81-29.77,11.71-45.23   c19,0.16,37.68-0.05,56.68,0.1c9.1-0.08,21.3-7.99,22.21-20.92c0.53-8.31-4.7-19.09-17.97-19.09c-19.3,0.06-38.59,0.12-57.89,0.17   c-14.17,55.14-28.34,110.28-42.51,165.43c-18.24,0.02-36.48,0.05-54.72,0.07c2.41-9.35,4.82-18.71,7.23-28.06l-0.3-0.08   c-7.78,7.72-20.8,18.46-39.36,24.33c-12.72,4.03-23.03,4.17-32.22,4.24c-29.48,0.2-56.4,0.19-82.09,0   c4.38-16.71,8.76-33.41,13.13-50.12c25.52,0.02,51.03,0.05,76.55,0.07c12.28-0.48,23.35-12.3,23.35-21.88   c0-9.58-7.58-18.37-24.03-18.21v-0.08c-21.88,0.01-43.75,0.02-65.63,0.04c3.99-15.73,7.97-31.46,11.96-47.18   c19.3,0.01,38.61,0.02,57.91,0.03c7.28-1.6,11.07-8.55,10.92-15.41c-0.15-7.75-5.31-13.26-13.72-13.26h-54.81   c-14.11,55.34-28.22,110.67-42.33,166.01c-18.91,0-37.83,0-56.74,0C44.8,142.46,62.94,71.23,81.08,0z"/>
	<g>
		<path class="st4" d="M33.17,287.44c-0.55,2.29-1.4,4.22-2.53,5.8c-1.13,1.58-2.83,2.74-5.09,3.49c1.57,0.28,2.72,0.93,3.46,1.95    c0.73,1.03,1.08,2.41,1.05,4.14c-0.02,1.1-0.21,2.39-0.57,3.85c-0.36,1.46-0.67,2.58-0.92,3.37c-0.25,0.79-0.89,2.12-1.93,3.99    c-1.04,1.87-2.56,3.43-4.58,4.67c-2.01,1.24-4.5,1.86-7.46,1.86H0l11.01-44.37h13.37c2.25,0,4.06,0.2,5.43,0.59    c1.37,0.39,2.39,1.21,3.06,2.45c0.67,1.24,0.99,2.59,0.96,4.05C33.82,284.41,33.6,285.79,33.17,287.44z M20.82,307.44    c0.34-1.38,0.52-2.5,0.53-3.37c0.02-1.22-0.33-2.1-1.05-2.63c-0.72-0.53-2.01-0.8-3.86-0.8h-3.19l-3.37,13.43h1.77h1.95    c0.71,0,1.27-0.02,1.69-0.06c0.41-0.04,1.04-0.24,1.87-0.59c0.83-0.35,1.56-1.07,2.17-2.13    C19.94,310.22,20.44,308.94,20.82,307.44z M24.77,287.8c0.25-0.91,0.38-1.69,0.4-2.37c0.02-0.91-0.25-1.59-0.79-2.04    c-0.55-0.45-1.49-0.68-2.83-0.68H17.7l-2.86,11.42h1.54h0.77c1.34,0,2.43-0.09,3.26-0.27c0.83-0.18,1.55-0.57,2.15-1.18    c0.6-0.61,1.05-1.25,1.34-1.92C24.18,290.09,24.47,289.1,24.77,287.8z"/>
		<path class="st4" d="M61.1,294.01l-5.34,21.42c-0.13,0.47-0.26,1.07-0.39,1.8c-0.13,0.73-0.2,1.31-0.21,1.75    c-0.01,0.55,0.08,1.09,0.27,1.6h-7.93c-0.04-0.16-0.05-0.43-0.04-0.83c0.01-0.35,0.05-0.77,0.14-1.24    c0.09-0.47,0.17-0.87,0.26-1.18c-1.17,1.46-2.53,2.57-4.08,3.34c-1.55,0.77-3.06,1.15-4.52,1.15c-1.85,0-3.39-0.6-4.61-1.8    c-1.22-1.2-1.81-2.87-1.78-5c0.02-0.87,0.29-2.39,0.82-4.56c0.53-2.17,1.74-4,3.62-5.5c1.88-1.5,4.41-2.86,7.58-4.08    c3.18-1.22,5.2-2.19,6.09-2.9c0.88-0.71,1.47-1.34,1.78-1.89c0.31-0.55,0.46-1.07,0.47-1.54c0.01-0.71-0.28-1.28-0.89-1.72    c-0.6-0.43-1.36-0.65-2.27-0.65c-1.26,0-2.38,0.41-3.36,1.24c-0.98,0.83-1.58,2.11-1.81,3.85h-7.45c0.38-3.67,1.93-6.46,4.64-8.37    c2.71-1.91,5.79-2.87,9.22-2.87c2.88,0,5.29,0.57,7.25,1.72c1.95,1.14,2.91,2.68,2.88,4.61C61.42,292.79,61.31,293.34,61.1,294.01    z M50.82,303.36l-6.45,3.73c-1.04,0.55-1.83,1.34-2.38,2.37c-0.55,1.03-0.84,2.09-0.85,3.19c-0.02,1.3,0.25,2.15,0.81,2.54    c0.56,0.39,1.14,0.59,1.74,0.59c1.06,0,2.11-0.41,3.13-1.24c1.02-0.83,1.74-2.07,2.16-3.73L50.82,303.36z"/>
		<path class="st4" d="M90.96,294.95l-6.36,25.62h-7.45l5.66-22.84c0.25-0.71,0.38-1.36,0.39-1.95c0.02-0.91-0.23-1.62-0.73-2.13    c-0.5-0.51-1.15-0.77-1.94-0.77c-0.95,0-1.87,0.34-2.77,1c-0.9,0.67-1.62,1.64-2.15,2.9l-5.92,23.78h-7.45l8.34-33.54h7.45    l-0.95,3.73c1.37-1.54,2.8-2.67,4.29-3.4c1.49-0.73,2.93-1.09,4.31-1.09c1.7,0,3.09,0.53,4.17,1.6c1.09,1.06,1.61,2.5,1.58,4.32    C91.41,293.08,91.25,294.01,90.96,294.95z"/>
		<path class="st4" d="M118.04,296.13l-0.64,2.68h-7.69l1.01-3.76c0-0.2,0.01-0.46,0.01-0.78c0.02-1.39-0.65-2.09-2.03-2.09    c-1.3,0-2.28,0.62-2.93,1.87c-0.65,1.25-1.28,3.11-1.87,5.6l-1.91,7.89c-0.71,2.45-1.08,4.31-1.1,5.57    c-0.01,0.79,0.14,1.38,0.47,1.75c0.33,0.38,0.85,0.6,1.56,0.68c1.26,0,2.07-0.38,2.42-1.15c0.35-0.77,0.83-2.02,1.46-3.76    l0.76-3.08h7.69l-0.76,3.08c-0.89,3.63-2.38,6.34-4.46,8.13c-2.08,1.79-5,2.69-8.74,2.69c-2.72,0-4.78-0.59-6.18-1.78    c-1.4-1.18-2.08-3.04-2.03-5.57c0.03-1.54,0.31-3.26,0.86-5.16l2.67-10.84c1.06-4.35,2.74-7.41,5.04-9.18    c2.3-1.78,5.08-2.67,8.36-2.67c2.96,0,5.12,0.65,6.47,1.96c1.36,1.31,2.02,3.01,1.98,5.11    C118.42,294.24,118.29,295.18,118.04,296.13z"/>
		<path class="st4" d="M145.06,303.36c-1.16,5.36-2.69,9.73-4.61,13.1c-1.91,3.37-5.77,5.06-11.57,5.06c-3.63,0-6.15-0.73-7.56-2.19    c-1.41-1.46-2.1-3.47-2.05-6.03c0.03-1.5,0.17-2.84,0.42-4.02c0.26-1.18,0.96-3.88,2.12-8.08c1.16-4.2,2.62-7.77,4.39-10.71    c1.77-2.94,5.29-4.41,10.58-4.41c3.63,0,6.15,0.66,7.57,1.98c1.42,1.32,2.1,3.44,2.05,6.36    C146.37,296.51,145.92,299.49,145.06,303.36z M138.66,297.26c0.25-0.83,0.38-1.54,0.39-2.13c0.02-1.03-0.24-1.79-0.79-2.31    c-0.54-0.51-1.23-0.77-2.06-0.77c-1.22,0-2.37,0.46-3.46,1.39c-1.08,0.93-1.75,2.2-2.02,3.82l-3.37,13.55    c-0.17,0.51-0.25,1.07-0.27,1.66c-0.02,1.03,0.27,1.82,0.88,2.4c0.6,0.57,1.39,0.86,2.38,0.86c1.1,0,2.14-0.42,3.1-1.27    c0.96-0.85,1.57-2.06,1.84-3.64L138.66,297.26z"/>
		<path class="st4" d="M198.54,276.38l-11.01,44.19h-7.93l0.7-2.78c-0.89,1.3-1.94,2.29-3.16,2.96c-1.22,0.67-2.51,1.01-3.89,1.01    c-1.74,0-3.19-0.64-4.37-1.92c-1.18-1.28-1.75-3.16-1.71-5.65c0.02-0.99,0.15-2.11,0.41-3.37l3.69-14.91    c1.12-3.11,2.65-5.42,4.61-6.92c1.96-1.5,3.92-2.25,5.89-2.25c1.38,0,2.57,0.34,3.59,1c1.01,0.67,1.59,1.52,1.73,2.54l3.5-13.9    H198.54z M185,298.68c0.23-0.91,0.35-1.66,0.36-2.25c0.04-2.21-0.75-3.31-2.38-3.31c-0.95,0-1.9,0.48-2.84,1.45    c-0.95,0.97-1.65,2.33-2.12,4.11l-2.9,11.65c-0.21,0.91-0.33,1.68-0.34,2.31c-0.02,1.03,0.2,1.84,0.67,2.43    c0.46,0.59,1.07,0.89,1.82,0.89c0.95,0,1.88-0.48,2.81-1.45c0.92-0.97,1.62-2.36,2.08-4.17L185,298.68z"/>
		<path class="st4" d="M220.98,305.19H205.5l-1.54,6.09c0,0.28-0.01,0.69-0.02,1.24c-0.02,0.99,0.26,1.75,0.82,2.28    c0.56,0.53,1.3,0.8,2.2,0.8c1.3,0,2.46-0.53,3.49-1.6c1.02-1.07,1.55-2.6,1.59-4.61h7.93c-0.06,3.51-1.51,6.36-4.35,8.55    c-2.84,2.19-5.99,3.28-9.46,3.28c-2.72,0-4.99-0.75-6.79-2.25c-1.81-1.5-2.69-3.71-2.64-6.63c0.01-0.67,0.04-1.2,0.09-1.6    c0.05-0.39,0.17-1.01,0.39-1.83l2.92-11.65c1.21-4.06,3.09-6.86,5.62-8.4c2.53-1.54,5.75-2.31,9.65-2.31    c2.45,0,4.39,0.51,5.83,1.54c1.44,1.03,2.14,3.08,2.08,6.15C223.26,297.01,222.48,300.65,220.98,305.19z M215.83,295.9    c0.13-0.43,0.19-0.81,0.2-1.12c0.01-0.75-0.28-1.33-0.89-1.75c-0.6-0.41-1.34-0.62-2.21-0.62c-1.1,0-2.16,0.31-3.15,0.92    c-1,0.61-1.62,1.47-1.88,2.57l-0.89,3.73h7.93L215.83,295.9z"/>
		<path class="st4" d="M271.19,276.38c2.8,0,4.89,0.79,6.26,2.36c1.37,1.57,2.04,3.6,1.99,6.08c-0.07,4.05-1.69,7.92-4.85,11.6    c-3.16,3.68-7.03,5.52-11.6,5.52h-6.51l-4.64,18.64h-8.87l11.01-44.19H271.19z M265.81,282.89h-4.61l-3.24,13.01h5.09    c1.89,0,3.57-0.92,5.05-2.77c1.47-1.84,2.23-3.79,2.26-5.83c0.02-1.29-0.33-2.35-1.07-3.18    C268.54,283.3,267.39,282.89,265.81,282.89z"/>
		<path class="st4" d="M299.46,286.61l-2.29,9.11c-0.28,0-0.58-0.01-0.92-0.03c-0.34-0.02-0.56-0.03-0.68-0.03    c-1.89,0-3.47,0.42-4.73,1.27c-1.26,0.85-2.16,2.3-2.71,4.35l-4.77,19.29h-7.69l8.27-33.37h7.39l-1.46,5.92    c1.58-2.25,2.96-3.79,4.16-4.61c1.2-0.83,2.2-1.35,3.01-1.57C297.87,286.72,298.67,286.61,299.46,286.61z"/>
		<path class="st4" d="M321.08,305.19H305.6l-1.54,6.09c0,0.28-0.01,0.69-0.02,1.24c-0.02,0.99,0.26,1.75,0.82,2.28    c0.56,0.53,1.3,0.8,2.2,0.8c1.3,0,2.46-0.53,3.49-1.6c1.02-1.07,1.55-2.6,1.59-4.61h7.93c-0.06,3.51-1.51,6.36-4.35,8.55    c-2.84,2.19-5.99,3.28-9.46,3.28c-2.72,0-4.99-0.75-6.79-2.25c-1.81-1.5-2.69-3.71-2.64-6.63c0.01-0.67,0.04-1.2,0.09-1.6    c0.05-0.39,0.17-1.01,0.39-1.83l2.92-11.65c1.21-4.06,3.09-6.86,5.62-8.4c2.53-1.54,5.75-2.31,9.65-2.31    c2.44,0,4.39,0.51,5.83,1.54c1.44,1.03,2.14,3.08,2.08,6.15C323.36,297.01,322.58,300.65,321.08,305.19z M315.93,295.9    c0.13-0.43,0.19-0.81,0.2-1.12c0.01-0.75-0.28-1.33-0.89-1.75c-0.6-0.41-1.34-0.62-2.21-0.62c-1.11,0-2.16,0.31-3.15,0.92    c-1,0.61-1.62,1.47-1.88,2.57l-0.89,3.73h7.93L315.93,295.9z"/>
		<path class="st4" d="M355.24,287.03l-15.79,33.54h-9.76l0.41-33.54h8.4l-2.13,27.04l10.47-27.04H355.24z"/>
		<path class="st4" d="M367.19,287.03l-8.34,33.54h-7.45l8.34-33.54H367.19z M370.06,275.37l-1.85,7.45h-7.45l1.85-7.45H370.06z"/>
		<path class="st4" d="M392.45,297.26H385c0.29-0.79,0.44-1.5,0.45-2.13c0.02-0.91-0.24-1.59-0.76-2.04    c-0.52-0.45-1.18-0.68-1.97-0.68c-0.95,0-1.8,0.28-2.56,0.83c-0.76,0.55-1.15,1.26-1.16,2.13c-0.02,1.07,0.61,2.17,1.89,3.31    c1.91,1.46,3.83,2.9,5.78,4.32c2.13,2.01,3.18,4.28,3.14,6.8c-0.03,1.54-0.47,3.27-1.33,5.21c-0.86,1.93-2.49,3.5-4.87,4.7    c-2.39,1.2-4.86,1.8-7.43,1.8c-2.6,0-4.77-0.65-6.5-1.95c-1.73-1.3-2.58-3.23-2.53-5.8c0.02-1.34,0.3-2.8,0.85-4.38h7.45    c-0.58,1.38-0.87,2.54-0.89,3.49c-0.02,0.91,0.2,1.57,0.65,1.98c0.45,0.41,1.04,0.62,1.79,0.62c1.07,0,2.09-0.38,3.07-1.15    c0.98-0.77,1.48-1.67,1.5-2.69c0.01-0.43-0.08-0.84-0.27-1.21c-0.19-0.37-0.42-0.72-0.69-1.04c-2.8-2.25-5.05-4.26-6.76-6.03    c-1.7-1.77-2.6-3.06-2.68-3.85c-0.08-0.79-0.12-1.32-0.12-1.6c0-0.28,0.01-0.47,0.01-0.59c0.06-3.39,1.41-6.08,4.05-8.08    c2.64-1.99,5.61-2.99,8.93-2.99c2.6,0,4.77,0.65,6.5,1.95c1.73,1.3,2.58,3.19,2.53,5.68C393.03,294.88,392.83,296,392.45,297.26z"/>
		<path class="st4" d="M409.25,287.03l-8.34,33.54h-7.45l8.34-33.54H409.25z M412.12,275.37l-1.85,7.45h-7.45l1.85-7.45H412.12z"/>
		<path class="st4" d="M436.24,303.36c-1.16,5.36-2.69,9.73-4.61,13.1c-1.91,3.37-5.77,5.06-11.56,5.06c-3.63,0-6.15-0.73-7.56-2.19    c-1.41-1.46-2.1-3.47-2.05-6.03c0.03-1.5,0.17-2.84,0.43-4.02c0.26-1.18,0.96-3.88,2.12-8.08c1.16-4.2,2.62-7.77,4.39-10.71    c1.77-2.94,5.29-4.41,10.58-4.41c3.63,0,6.15,0.66,7.57,1.98c1.42,1.32,2.1,3.44,2.05,6.36    C437.54,296.51,437.1,299.49,436.24,303.36z M429.84,297.26c0.25-0.83,0.38-1.54,0.39-2.13c0.02-1.03-0.25-1.79-0.79-2.31    c-0.54-0.51-1.23-0.77-2.06-0.77c-1.22,0-2.38,0.46-3.46,1.39c-1.08,0.93-1.75,2.2-2.02,3.82l-3.37,13.55    c-0.17,0.51-0.26,1.07-0.27,1.66c-0.02,1.03,0.27,1.82,0.88,2.4c0.6,0.57,1.4,0.86,2.38,0.86c1.1,0,2.14-0.42,3.1-1.27    c0.96-0.85,1.57-2.06,1.84-3.64L429.84,297.26z M441.64,275.49l-11.04,8.87h-6.03l7.73-8.87H441.64z"/>
		<path class="st4" d="M467.51,294.95l-6.36,25.62h-7.45l5.66-22.84c0.25-0.71,0.38-1.36,0.39-1.95c0.02-0.91-0.23-1.62-0.73-2.13    c-0.5-0.51-1.15-0.77-1.94-0.77c-0.95,0-1.87,0.34-2.77,1c-0.9,0.67-1.62,1.64-2.15,2.9l-5.92,23.78h-7.45l8.34-33.54h7.45    l-0.95,3.73c1.37-1.54,2.8-2.67,4.29-3.4c1.49-0.73,2.93-1.09,4.31-1.09c1.7,0,3.09,0.53,4.17,1.6c1.08,1.06,1.61,2.5,1.58,4.32    C467.95,293.08,467.8,294.01,467.51,294.95z"/>
		<path class="st4" d="M519.12,290.28h-7.93c0.38-1.42,0.58-2.62,0.6-3.61c0.03-1.5-0.29-2.58-0.95-3.25    c-0.66-0.67-1.52-1.01-2.59-1.01c-1.42,0-2.77,0.52-4.05,1.57c-1.28,1.04-1.93,2.26-1.96,3.64c-0.01,0.63,0.13,1.24,0.41,1.83    c0.29,0.59,0.74,1.18,1.36,1.77c2.57,2.05,5.13,4.08,7.7,6.09c2.91,2.68,4.34,5.78,4.28,9.29c-0.08,4.46-1.9,8.08-5.45,10.86    c-3.56,2.78-7.47,4.17-11.73,4.17c-3.16,0-5.76-0.84-7.82-2.51c-2.06-1.68-3.06-4.15-3.01-7.42c0.03-1.89,0.48-4.06,1.36-6.51h8.4    c-0.41,1.03-0.7,1.96-0.88,2.81c-0.17,0.85-0.26,1.63-0.28,2.34c-0.03,1.58,0.34,2.74,1.09,3.49c0.76,0.75,1.75,1.12,2.97,1.12    c1.54,0,2.99-0.55,4.35-1.66c1.36-1.1,2.05-2.44,2.08-4.02c0.02-0.91-0.21-1.8-0.66-2.69c-0.46-0.89-1.55-2.06-3.28-3.52    c-1.73-1.46-3.76-3.19-6.09-5.21c-2.48-2.52-3.7-5.17-3.65-7.93c0.02-0.99,0.39-2.67,1.12-5.06c0.73-2.39,2.63-4.6,5.71-6.66    c3.07-2.05,6.3-3.08,9.7-3.08c3,0,5.46,0.83,7.38,2.49c1.92,1.66,2.86,4.06,2.8,7.22C520.07,286.46,519.74,288.27,519.12,290.28z"/>
		<path class="st4" d="M546.46,303.36c-1.16,5.36-2.69,9.73-4.61,13.1c-1.91,3.37-5.77,5.06-11.56,5.06c-3.63,0-6.15-0.73-7.56-2.19    c-1.41-1.46-2.1-3.47-2.05-6.03c0.03-1.5,0.17-2.84,0.43-4.02c0.26-1.18,0.96-3.88,2.12-8.08c1.16-4.2,2.62-7.77,4.39-10.71    c1.77-2.94,5.29-4.41,10.58-4.41c3.63,0,6.15,0.66,7.57,1.98c1.42,1.32,2.1,3.44,2.05,6.36    C547.76,296.51,547.31,299.49,546.46,303.36z M540.05,297.26c0.25-0.83,0.38-1.54,0.39-2.13c0.02-1.03-0.25-1.79-0.79-2.31    c-0.54-0.51-1.23-0.77-2.06-0.77c-1.22,0-2.38,0.46-3.46,1.39c-1.08,0.93-1.75,2.2-2.02,3.82l-3.37,13.55    c-0.17,0.51-0.26,1.07-0.27,1.66c-0.02,1.03,0.27,1.82,0.88,2.4c0.6,0.57,1.4,0.86,2.38,0.86c1.1,0,2.14-0.42,3.1-1.27    c0.96-0.85,1.57-2.06,1.84-3.64L540.05,297.26z"/>
		<path class="st4" d="M575.16,296.13l-0.64,2.68h-7.69l1.01-3.76c0-0.2,0.01-0.46,0.01-0.78c0.02-1.39-0.65-2.09-2.03-2.09    c-1.3,0-2.28,0.62-2.93,1.87c-0.65,1.25-1.28,3.11-1.87,5.6l-1.91,7.89c-0.71,2.45-1.08,4.31-1.1,5.57    c-0.01,0.79,0.14,1.38,0.47,1.75c0.33,0.38,0.85,0.6,1.56,0.68c1.26,0,2.07-0.38,2.42-1.15c0.35-0.77,0.83-2.02,1.46-3.76    l0.76-3.08h7.69l-0.76,3.08c-0.89,3.63-2.38,6.34-4.46,8.13c-2.08,1.79-5,2.69-8.74,2.69c-2.72,0-4.78-0.59-6.18-1.78    s-2.08-3.04-2.03-5.57c0.03-1.54,0.31-3.26,0.86-5.16l2.67-10.84c1.06-4.35,2.74-7.41,5.04-9.18c2.3-1.78,5.08-2.67,8.36-2.67    c2.96,0,5.11,0.65,6.47,1.96c1.36,1.31,2.02,3.01,1.98,5.11C575.54,294.24,575.41,295.18,575.16,296.13z"/>
		<path class="st4" d="M591.35,287.03l-8.34,33.54h-7.45l8.34-33.54H591.35z M594.21,275.37l-1.85,7.45h-7.45l1.85-7.45H594.21z"/>
		<path class="st4" d="M619.74,294.01l-5.34,21.42c-0.13,0.47-0.26,1.07-0.39,1.8c-0.13,0.73-0.2,1.31-0.21,1.75    c-0.01,0.55,0.08,1.09,0.27,1.6h-7.93c-0.04-0.16-0.05-0.43-0.04-0.83c0.01-0.35,0.05-0.77,0.14-1.24    c0.09-0.47,0.17-0.87,0.26-1.18c-1.17,1.46-2.53,2.57-4.08,3.34c-1.55,0.77-3.06,1.15-4.52,1.15c-1.85,0-3.39-0.6-4.61-1.8    c-1.22-1.2-1.81-2.87-1.78-5c0.02-0.87,0.29-2.39,0.82-4.56c0.53-2.17,1.74-4,3.62-5.5c1.88-1.5,4.41-2.86,7.58-4.08    c3.18-1.22,5.2-2.19,6.08-2.9c0.88-0.71,1.47-1.34,1.78-1.89c0.31-0.55,0.46-1.07,0.47-1.54c0.01-0.71-0.28-1.28-0.89-1.72    c-0.61-0.43-1.36-0.65-2.27-0.65c-1.26,0-2.38,0.41-3.36,1.24c-0.98,0.83-1.59,2.11-1.81,3.85h-7.45    c0.38-3.67,1.93-6.46,4.64-8.37c2.71-1.91,5.79-2.87,9.22-2.87c2.88,0,5.29,0.57,7.25,1.72c1.95,1.14,2.91,2.68,2.88,4.61    C620.05,292.79,619.95,293.34,619.74,294.01z M609.46,303.36l-6.45,3.73c-1.04,0.55-1.83,1.34-2.38,2.37    c-0.55,1.03-0.84,2.09-0.85,3.19c-0.02,1.3,0.25,2.15,0.81,2.54c0.56,0.39,1.14,0.59,1.73,0.59c1.07,0,2.11-0.41,3.13-1.24    s1.74-2.07,2.17-3.73L609.46,303.36z"/>
		<path class="st4" d="M640,275.37l-11.2,45.2h-7.93l11.2-45.2H640z"/>
	</g>
</g>
</svg>